<mxfile host="www.draw.io" modified="2019-10-22T12:32:23.541Z" agent="Mozilla/5.0 (Macintosh; Intel Mac OS X 10.14; rv:68.0) Gecko/20100101 Firefox/68.0" etag="a6qNjpWNgapg_qAx0CiR" version="12.1.3" type="github" pages="1">
  <diagram id="yBLAEyzvySmHPHxUsG0S" name="Page-1">
    <mxGraphModel dx="1265" dy="1027" grid="1" gridSize="10" guides="1" tooltips="1" connect="1" arrows="1" fold="1" page="1" pageScale="1" pageWidth="850" pageHeight="1100" math="0" shadow="0">
      <root>
        <mxCell id="0"/>
        <mxCell id="1" parent="0"/>
        <mxCell id="D5lDFGBBDvrkQKdFWcEU-6" value="" style="edgeStyle=orthogonalEdgeStyle;rounded=0;orthogonalLoop=1;jettySize=auto;html=1;" parent="1" source="D5lDFGBBDvrkQKdFWcEU-1" target="D5lDFGBBDvrkQKdFWcEU-2" edge="1">
          <mxGeometry relative="1" as="geometry"/>
        </mxCell>
        <mxCell id="D5lDFGBBDvrkQKdFWcEU-1" value="Start" style="rounded=1;whiteSpace=wrap;html=1;" parent="1" vertex="1">
          <mxGeometry x="305" y="80" width="245" height="40" as="geometry"/>
        </mxCell>
        <mxCell id="D5lDFGBBDvrkQKdFWcEU-7" value="" style="edgeStyle=orthogonalEdgeStyle;rounded=0;orthogonalLoop=1;jettySize=auto;html=1;" parent="1" source="D5lDFGBBDvrkQKdFWcEU-2" target="D5lDFGBBDvrkQKdFWcEU-4" edge="1">
          <mxGeometry relative="1" as="geometry"/>
        </mxCell>
        <mxCell id="D5lDFGBBDvrkQKdFWcEU-2" value="&lt;div&gt;User creates Business problem needing machine learning, initial data set, and scoring method and exposes it on platform&lt;br&gt;&lt;/div&gt;&lt;div&gt;&lt;br&gt;&lt;/div&gt;" style="rounded=0;whiteSpace=wrap;html=1;" parent="1" vertex="1">
          <mxGeometry x="305" y="145" width="245" height="90" as="geometry"/>
        </mxCell>
        <mxCell id="D5lDFGBBDvrkQKdFWcEU-8" value="" style="edgeStyle=orthogonalEdgeStyle;rounded=0;orthogonalLoop=1;jettySize=auto;html=1;" parent="1" source="D5lDFGBBDvrkQKdFWcEU-4" target="D5lDFGBBDvrkQKdFWcEU-5" edge="1">
          <mxGeometry relative="1" as="geometry"/>
        </mxCell>
        <mxCell id="D5lDFGBBDvrkQKdFWcEU-4" value="&lt;div&gt;Users submit machine learning solutions to problem (along with their code)&lt;br&gt;&lt;/div&gt;&lt;div&gt;&lt;br&gt;&lt;/div&gt;" style="rounded=0;whiteSpace=wrap;html=1;" parent="1" vertex="1">
          <mxGeometry x="305" y="260" width="245" height="90" as="geometry"/>
        </mxCell>
        <mxCell id="D5lDFGBBDvrkQKdFWcEU-5" value="&lt;div&gt;&lt;br&gt;&lt;/div&gt;&lt;div&gt;&lt;br&gt;&lt;/div&gt;&lt;div&gt;Platform prompts users for the component breakdown of their solution (incremental data sets Dn), Data pipeline outputs (DPn), and their machine learning models (model n), &lt;br&gt;&lt;/div&gt;&lt;div&gt;&lt;br&gt;&lt;/div&gt;&lt;div&gt;or the platform auto-discovers these components from their submitted code.&lt;/div&gt;&lt;div&gt;&lt;br&gt;&lt;/div&gt;&lt;div&gt;&lt;br&gt;&lt;/div&gt;" style="rounded=0;whiteSpace=wrap;html=1;" parent="1" vertex="1">
          <mxGeometry x="305" y="380" width="245" height="110" as="geometry"/>
        </mxCell>
        <mxCell id="D5lDFGBBDvrkQKdFWcEU-9" value="&lt;div&gt;&lt;br&gt;&lt;/div&gt;&lt;div&gt;&lt;br&gt;&lt;/div&gt;&lt;div&gt;Platform ranks individual solutions and shows results on a leaderboard. &lt;br&gt;&lt;/div&gt;&lt;div&gt;&lt;br&gt;&lt;/div&gt;" style="rounded=0;whiteSpace=wrap;html=1;" parent="1" vertex="1">
          <mxGeometry x="305" y="510" width="245" height="60" as="geometry"/>
        </mxCell>
        <mxCell id="D5lDFGBBDvrkQKdFWcEU-12" style="edgeStyle=orthogonalEdgeStyle;rounded=0;orthogonalLoop=1;jettySize=auto;html=1;" parent="1" source="D5lDFGBBDvrkQKdFWcEU-10" target="D5lDFGBBDvrkQKdFWcEU-11" edge="1">
          <mxGeometry relative="1" as="geometry"/>
        </mxCell>
        <mxCell id="D5lDFGBBDvrkQKdFWcEU-10" value="Platform takes individual components of the machine learning solutions (Dn, DPn, model n) and formulates various hybrid solutions and ranks them on the leaderboard" style="rounded=0;whiteSpace=wrap;html=1;" parent="1" vertex="1">
          <mxGeometry x="305" y="590" width="245" height="80" as="geometry"/>
        </mxCell>
        <mxCell id="D5lDFGBBDvrkQKdFWcEU-14" style="edgeStyle=orthogonalEdgeStyle;rounded=0;orthogonalLoop=1;jettySize=auto;html=1;entryX=1;entryY=0.5;entryDx=0;entryDy=0;exitX=0.5;exitY=0;exitDx=0;exitDy=0;" parent="1" source="D5lDFGBBDvrkQKdFWcEU-11" target="D5lDFGBBDvrkQKdFWcEU-4" edge="1">
          <mxGeometry relative="1" as="geometry"/>
        </mxCell>
        <mxCell id="D5lDFGBBDvrkQKdFWcEU-11" value="&lt;div&gt;&lt;br&gt;&lt;/div&gt;&lt;div&gt;&lt;br&gt;&lt;/div&gt;&lt;div&gt;Platform informs users of new data sets (Dn), data pipelines (DPn) or machine learning models and any changes to leaderboard&lt;br&gt;&lt;/div&gt;&lt;div&gt;&lt;br&gt;&lt;/div&gt;" style="rounded=0;whiteSpace=wrap;html=1;" parent="1" vertex="1">
          <mxGeometry x="580" y="350" width="245" height="60" as="geometry"/>
        </mxCell>
      </root>
    </mxGraphModel>
  </diagram>
</mxfile>
